<svg id="Layer_1" data-name="Layer 1" xmlns="http://www.w3.org/2000/svg" viewBox="0 0 1012.50702 82.529"><defs><style>.cls-1,.cls-4,.cls-5{fill:#fff;}.cls-2{fill:none;stroke:#fff;stroke-miterlimit:10;}.cls-3,.cls-4,.cls-5{isolation:isolate;}.cls-4{font-size:17px;}.cls-4,.cls-5{font-family:HelveticaNeue, Helvetica Neue;}.cls-5{font-size:26px;}</style></defs><g id="page1"><rect id="Rectangle_27" data-name="Rectangle 27" class="cls-1" x="5.25767" y="44.76893" width="20.391" height="2.399"/><path id="Path_2" data-name="Path 2" class="cls-1" d="M12.92167,66.69893c-.708.042-.875.083-.875.458,0,.416.208.416.958.416h1.916c3.54,0,5.123,2.915,5.123,6.914,0,5.456-2.832,6.914-4.873,6.914-2,0-5.414-.958-6.622-3.707a2.04,2.04,0,0,0,2.541-2.041,1.969,1.969,0,0,0-1.89526-2.04007q-.07335-.0027-.14674.00007a1.983,1.983,0,0,0-2.082,2.166c0,3.707,3.707,6.747,8.33,6.747a8.339,8.339,0,0,0,8.621-8c0-3.832-3.082-6.831-7.08-7.539a7.849,7.849,0,0,0,5.956-7.33c0-3.29-3.415-5.706-7.455-5.706-4.166.004-7.248,2.544-7.248,5.584a1.848,1.848,0,0,0,1.916,2,1.835,1.835,0,0,0,1.874-1.79516q.00085-.0394,0-.07884a1.83,1.83,0,0,0-1.73975-1.916q-.08807-.00424-.17624,0a1.3,1.3,0,0,0-.458.042c1.583-2.833,5.495-2.833,5.706-2.833,1.374,0,4.082.625,4.082,4.706a9.4,9.4,0,0,1-1.333,4.915,4.2,4.2,0,0,1-3.79,2Z"/><path id="Path_3" data-name="Path 3" class="cls-1" d="M63.89168,81.30093a.893.893,0,0,0-.24-.54c-2.759-2.939-6.839-7.8-9.358-17.576a72.508,72.508,0,0,1-1.92-17.216c0-15.777,3.779-26.814,10.978-34.613.54-.54.54-.66.54-.78,0-.6-.48-.6-.72-.6-.9,0-4.139,3.6-4.919,4.5-6.119,7.258-10.018,18.055-10.018,31.434,0,8.518,1.5,20.576,9.358,30.713.6.72,4.5,5.279,5.579,5.279C63.41168,81.90093,63.89168,81.90093,63.89168,81.30093Z"/><path id="Path_4" data-name="Path 4" class="cls-1" d="M95.04468,36.49093a3,3,0,0,0-2.639,2.939,1.857,1.857,0,0,0,1.98,1.92,3.135,3.135,0,0,0,3.059-3.179c0-2.519-2.879-3.659-5.4-3.659-3.659,0-5.7,3.6-6.239,4.739a6.213,6.213,0,0,0-6.178-4.743c-6.119,0-9.358,7.858-9.358,9.178a.612.612,0,0,0,.66.54c.48,0,.6-.36.72-.6,2.04-6.659,6.059-7.918,7.8-7.918,2.7,0,3.239,2.519,3.239,3.959a25.0419,25.0419,0,0,1-1.081,5.582l-2.04,8.218c-.9,3.6-2.639,6.9-5.819,6.9a6.063,6.063,0,0,1-3.059-.78,3.1,3.1,0,0,0,2.639-2.939A1.89,1.89,0,0,0,71.475,54.72228q-.09325-.00177-.18633.00565a3.127,3.127,0,0,0-3,3.179c0,2.519,2.819,3.659,5.4,3.659,2.879,0,4.919-2.28,6.179-4.739a6.269,6.269,0,0,0,6.179,4.739c6.119,0,9.358-7.858,9.358-9.178a.554.554,0,0,0-.566-.54179l-.034.00179c-.54,0-.6.3-.78.78-1.62,5.279-5.1,7.738-7.8,7.738-2.1,0-3.239-1.56-3.239-4.019,0-1.32.24-2.28,1.2-6.239l2.1-8.158c.9-3.6,2.939-6.239,5.7-6.239A6.449,6.449,0,0,1,95.04468,36.49093Z"/><path id="Path_5" data-name="Path 5" class="cls-1" d="M111.98367,43.26593c0-.958,0-1-.833-1-1,1.125-3.082,2.666-7.372,2.666v1.208a12.01116,12.01116,0,0,0,5.331-1.083v21.7c0,1.5-.125,2-3.79,2h-1.291v1.208c1.125-.083,5.165-.083,6.539-.083s5.373,0,6.5.083v-1.209h-1.294c-3.665,0-3.79-.5-3.79-2Z"/><path id="Path_6" data-name="Path 6" class="cls-1" d="M129.48967,24.24393c-.708.042-.875.083-.875.458,0,.416.208.416.958.416h1.916c3.54,0,5.123,2.915,5.123,6.914,0,5.456-2.832,6.914-4.873,6.914-2,0-5.414-.958-6.622-3.707a2.04,2.04,0,0,0,2.541-2.041,1.969,1.969,0,0,0-1.89526-2.04007q-.07335-.0027-.14674.00007a1.983,1.983,0,0,0-2.082,2.166c0,3.707,3.707,6.747,8.33,6.747a8.339,8.339,0,0,0,8.621-8c0-3.832-3.082-6.831-7.08-7.539a7.849,7.849,0,0,0,5.956-7.33c0-3.29-3.415-5.706-7.455-5.706-4.166.004-7.248,2.544-7.248,5.584a1.89777,1.89777,0,0,0,3.79.20485q.00084-.03942,0-.07885a1.83,1.83,0,0,0-1.73976-1.916q-.08807-.00424-.17624,0a1.3,1.3,0,0,0-.458.042c1.583-2.833,5.495-2.833,5.706-2.833,1.374,0,4.082.625,4.082,4.706a9.4,9.4,0,0,1-1.333,4.915,4.2,4.2,0,0,1-3.79,2Z"/><path id="Path_7" data-name="Path 7" class="cls-1" d="M196.52567,47.17293c1.02,0,2.1,0,2.1-1.2s-1.08-1.2-2.1-1.2h-32.454c-1.02,0-2.1,0-2.1,1.2s1.08,1.2,2.1,1.2Z"/><path id="Path_8" data-name="Path 8" class="cls-1" d="M245.41467,36.49093a3,3,0,0,0-2.639,2.939,1.857,1.857,0,0,0,1.98,1.92,3.135,3.135,0,0,0,3.059-3.179c0-2.519-2.879-3.659-5.4-3.659-3.659,0-5.7,3.6-6.239,4.739a6.213,6.213,0,0,0-6.178-4.743c-6.119,0-9.358,7.858-9.358,9.178a.612.612,0,0,0,.66.54c.48,0,.6-.36.72-.6,2.04-6.659,6.059-7.918,7.8-7.918,2.7,0,3.239,2.519,3.239,3.959a25.0419,25.0419,0,0,1-1.081,5.582l-2.04,8.218c-.9,3.6-2.639,6.9-5.819,6.9a6.063,6.063,0,0,1-3.059-.78,3.1,3.1,0,0,0,2.639-2.939,1.89,1.89,0,0,0-1.85367-1.92565q-.09326-.00177-.18633.00565a3.127,3.127,0,0,0-3,3.179c0,2.519,2.819,3.659,5.4,3.659,2.879,0,4.919-2.28,6.179-4.739a6.269,6.269,0,0,0,6.179,4.739c6.119,0,9.358-7.858,9.358-9.178a.554.554,0,0,0-.56595-.54179l-.03405.00179c-.54,0-.6.3-.78.78-1.62,5.279-5.1,7.738-7.8,7.738-2.1,0-3.239-1.56-3.239-4.019,0-1.32.24-2.28,1.2-6.239l2.1-8.158c.9-3.6,2.939-6.239,5.7-6.239A6.449,6.449,0,0,1,245.41467,36.49093Z"/><path id="Path_9" data-name="Path 9" class="cls-1" d="M269.01767,56.63593c0-3.457-.208-6.831-1.708-10a7.42611,7.42611,0,0,0-13.661.295c-1.166,2.624-1.582,5.207-1.582,9.705,0,4.04.292,7.08,1.791,10.038a7.406,7.406,0,0,0,6.664,4.164c3.624,0,5.706-2.166,6.914-4.581C268.93467,63.13293,269.01767,59.04693,269.01767,56.63593Zm-8.5,13.37c-1.333,0-4.04-.75-4.831-5.29a51.3281,51.3281,0,0,1-.458-8.58,36.46525,36.46525,0,0,1,.673-8.955,4.984,4.984,0,0,1,4.62-4.081c1.583,0,4,.958,4.79,4.54a42.47441,42.47441,0,0,1,.541,8.5,51.31341,51.31341,0,0,1-.458,8.5c-.793,4.574-3.416,5.365-4.873,5.365Z"/><path id="Path_10" data-name="Path 10" class="cls-1" d="M279.85966,24.24393c-.708.042-.875.083-.875.458,0,.416.208.416.958.416h1.916c3.54,0,5.123,2.915,5.123,6.914,0,5.456-2.832,6.914-4.873,6.914-2,0-5.414-.958-6.622-3.707a2.04,2.04,0,0,0,2.541-2.041,1.969,1.969,0,0,0-1.89526-2.04007q-.07335-.0027-.14674.00007a1.983,1.983,0,0,0-2.082,2.166c0,3.707,3.707,6.747,8.33,6.747a8.339,8.339,0,0,0,8.621-8c0-3.832-3.082-6.831-7.08-7.539a7.849,7.849,0,0,0,5.956-7.33c0-3.29-3.415-5.706-7.455-5.706-4.166.004-7.248,2.544-7.248,5.584a1.89777,1.89777,0,0,0,3.79.20485q.00086-.03942,0-.07885a1.83,1.83,0,0,0-1.73975-1.916q-.08808-.00424-.17625,0a1.3,1.3,0,0,0-.458.042c1.583-2.833,5.495-2.833,5.706-2.833,1.374,0,4.082.625,4.082,4.706a9.39993,9.39993,0,0,1-1.333,4.915,4.2,4.2,0,0,1-3.79,2Z"/><path id="Path_11" data-name="Path 11" class="cls-1" d="M312.32867,45.96793c0-8.518-1.5-20.576-9.358-30.713-.6-.72-4.5-5.279-5.579-5.279-.3,0-.72.12-.72.6a.73.73,0,0,0,.36.6c2.879,3.119,6.779,7.978,9.238,17.516a72.50786,72.50786,0,0,1,1.92,17.218,70.44907,70.44907,0,0,1-2.1,18.056,37.93208,37.93208,0,0,1-8.878,16.555c-.54.54-.54.66-.54.78,0,.48.42.6.72.6.9,0,4.2-3.659,4.919-4.5C308.42967,70.14293,312.32867,59.34493,312.32867,45.96793Z"/><path id="Path_12" data-name="Path 12" class="cls-1" d="M344.14169,47.04793h15.9c.84,0,1.86,0,1.86-1.02,0-1.08-.96-1.08-1.86-1.08h-15.9v-15.9c0-.84,0-1.86-1.02-1.86-1.08,0-1.08.96-1.08,1.86v15.9h-15.896c-.84,0-1.86,0-1.86,1.02,0,1.08.96,1.08,1.86,1.08h15.9v15.9c0,.84,0,1.86,1.02,1.86,1.08,0,1.08-.96,1.08-1.86Z"/><rect id="Rectangle_28" data-name="Rectangle 28" class="cls-1" x="368.17866" y="44.76893" width="20.391" height="2.399"/><path id="Path_14" data-name="Path 14" class="cls-1" d="M386.50367,74.65393h-.916a16.19432,16.19432,0,0,1-.875,3.665c-.292.375-2.666.375-3.915.375h-7.705c1.125-.959,3.665-3.623,4.748-4.623,6.331-5.831,8.663-8,8.663-12.12,0-4.79-3.79-8-8.621-8a7.714,7.714,0,0,0-7.664,7.709,1.96164,1.96164,0,1,0,3.915.2397q.00069-.03684,0-.0737a1.858,1.858,0,0,0-1.957-1.957,1.74076,1.74076,0,0,0-.583.042,6.077,6.077,0,0,1,5.747-4.749c3.54,0,5.706,2.957,5.706,6.789,0,3.54-2.041,6.622-4.415,9.288l-8.413,9.413v1h15.206Z"/><path id="Path_15" data-name="Path 15" class="cls-1" d="M426.81267,81.30093a.893.893,0,0,0-.24-.54c-2.759-2.939-6.839-7.8-9.358-17.576a72.50851,72.50851,0,0,1-1.92-17.216c0-15.777,3.779-26.814,10.978-34.613.54-.54.54-.66.54-.78,0-.6-.48-.6-.72-.6-.9,0-4.139,3.6-4.919,4.5-6.119,7.258-10.018,18.055-10.018,31.434,0,8.518,1.5,20.576,9.358,30.713.6.72,4.5,5.279,5.579,5.279C426.33267,81.90093,426.81267,81.90093,426.81267,81.30093Z"/><path id="Path_16" data-name="Path 16" class="cls-1" d="M457.96566,36.49093a3,3,0,0,0-2.639,2.939,1.857,1.857,0,0,0,1.98,1.92,3.135,3.135,0,0,0,3.059-3.179c0-2.519-2.879-3.659-5.4-3.659-3.659,0-5.7,3.6-6.239,4.739a6.213,6.213,0,0,0-6.178-4.743c-6.119,0-9.358,7.858-9.358,9.178a.612.612,0,0,0,.66.54c.48,0,.6-.36.72-.6,2.04-6.659,6.059-7.918,7.8-7.918,2.7,0,3.239,2.519,3.239,3.959a25.0419,25.0419,0,0,1-1.081,5.582l-2.04,8.218c-.9,3.6-2.639,6.9-5.819,6.9a6.063,6.063,0,0,1-3.059-.78,3.1,3.1,0,0,0,2.639-2.939,1.89,1.89,0,0,0-1.85367-1.92565q-.09324-.00177-.18633.00565a3.127,3.127,0,0,0-3,3.179c0,2.519,2.819,3.659,5.4,3.659,2.879,0,4.919-2.28,6.179-4.739a6.269,6.269,0,0,0,6.179,4.739c6.119,0,9.358-7.858,9.358-9.178a.554.554,0,0,0-.56594-.54179l-.03406.00179c-.54,0-.6.3-.78.78-1.62,5.279-5.1,7.738-7.8,7.738-2.1,0-3.239-1.56-3.239-4.019,0-1.32.24-2.28,1.2-6.239l2.1-8.158c.9-3.6,2.939-6.239,5.7-6.239A6.449,6.449,0,0,1,457.96566,36.49093Z"/><path id="Path_17" data-name="Path 17" class="cls-1" d="M474.90469,43.26593c0-.958,0-1-.833-1-1,1.125-3.082,2.666-7.372,2.666v1.208a12.01116,12.01116,0,0,0,5.331-1.083v21.7c0,1.5-.125,2-3.79,2h-1.291v1.208c1.125-.083,5.165-.083,6.539-.083s5.373,0,6.5.083v-1.209h-1.294c-3.665,0-3.79-.5-3.79-2Z"/><path id="Path_18" data-name="Path 18" class="cls-1" d="M503.07166,32.19893h-.916a16.19379,16.19379,0,0,1-.875,3.665c-.292.375-2.666.375-3.915.375h-7.705c1.125-.959,3.665-3.623,4.748-4.623,6.331-5.831,8.663-8,8.663-12.12,0-4.79-3.79-8-8.621-8a7.714,7.714,0,0,0-7.664,7.709,1.96164,1.96164,0,1,0,3.915.23971q.00069-.03686,0-.07371a1.858,1.858,0,0,0-1.957-1.957,1.74076,1.74076,0,0,0-.583.042,6.077,6.077,0,0,1,5.747-4.749c3.54,0,5.706,2.957,5.706,6.789,0,3.54-2.041,6.622-4.415,9.288l-8.413,9.413v1h15.206Z"/><path id="Path_19" data-name="Path 19" class="cls-1" d="M559.4457,47.17293c1.02,0,2.1,0,2.1-1.2s-1.08-1.2-2.1-1.2h-32.454c-1.02,0-2.1,0-2.1,1.2s1.08,1.2,2.1,1.2Z"/><path id="Path_20" data-name="Path 20" class="cls-1" d="M608.33468,36.49093a3,3,0,0,0-2.639,2.939,1.857,1.857,0,0,0,1.98,1.92,3.135,3.135,0,0,0,3.059-3.179c0-2.519-2.879-3.659-5.4-3.659-3.659,0-5.7,3.6-6.239,4.739a6.213,6.213,0,0,0-6.178-4.743c-6.119,0-9.358,7.858-9.358,9.178a.612.612,0,0,0,.66.54c.48,0,.6-.36.72-.6,2.04-6.659,6.059-7.918,7.8-7.918,2.7,0,3.239,2.519,3.239,3.959a25.0419,25.0419,0,0,1-1.081,5.582l-2.04,8.218c-.9,3.6-2.639,6.9-5.819,6.9a6.063,6.063,0,0,1-3.059-.78,3.1,3.1,0,0,0,2.639-2.939,1.89,1.89,0,0,0-1.85367-1.92565q-.09324-.00177-.18633.00565a3.127,3.127,0,0,0-3,3.179c0,2.519,2.819,3.659,5.4,3.659,2.879,0,4.919-2.28,6.179-4.739a6.269,6.269,0,0,0,6.179,4.739c6.119,0,9.358-7.858,9.358-9.178a.554.554,0,0,0-.56594-.54179l-.03406.00179c-.54,0-.6.3-.78.78-1.62,5.279-5.1,7.738-7.8,7.738-2.1,0-3.239-1.56-3.239-4.019,0-1.32.24-2.28,1.2-6.239l2.1-8.158c.9-3.6,2.939-6.239,5.7-6.239A6.449,6.449,0,0,1,608.33468,36.49093Z"/><path id="Path_21" data-name="Path 21" class="cls-1" d="M631.93868,56.63593c0-3.457-.208-6.831-1.708-10a7.42611,7.42611,0,0,0-13.661.295c-1.166,2.624-1.582,5.207-1.582,9.705,0,4.04.292,7.08,1.791,10.038a7.406,7.406,0,0,0,6.664,4.164c3.624,0,5.706-2.166,6.914-4.581C631.85568,63.13293,631.93868,59.04693,631.93868,56.63593Zm-8.5,13.37c-1.333,0-4.04-.75-4.831-5.29a51.327,51.327,0,0,1-.458-8.58,36.46476,36.46476,0,0,1,.673-8.955,4.984,4.984,0,0,1,4.62-4.081c1.583,0,4,.958,4.79,4.54a42.47515,42.47515,0,0,1,.541,8.5,51.31449,51.31449,0,0,1-.458,8.5c-.793,4.574-3.416,5.365-4.873,5.365Z"/><path id="Path_22" data-name="Path 22" class="cls-1" d="M653.44166,32.19893h-.916a16.19432,16.19432,0,0,1-.875,3.665c-.292.375-2.666.375-3.915.375h-7.705c1.125-.959,3.665-3.623,4.748-4.623,6.331-5.831,8.663-8,8.663-12.12,0-4.79-3.79-8-8.621-8a7.714,7.714,0,0,0-7.664,7.709,1.96163,1.96163,0,1,0,3.915.23971q.0007-.03686,0-.07371a1.858,1.858,0,0,0-1.957-1.957,1.74072,1.74072,0,0,0-.583.042,6.077,6.077,0,0,1,5.747-4.749c3.54,0,5.706,2.957,5.706,6.789,0,3.54-2.041,6.622-4.415,9.288l-8.413,9.413v1h15.206Z"/><path id="Path_23" data-name="Path 23" class="cls-1" d="M675.24868,45.96793c0-8.518-1.5-20.576-9.358-30.713-.6-.72-4.5-5.279-5.579-5.279-.3,0-.72.12-.72.6a.73.73,0,0,0,.36.6c2.879,3.119,6.779,7.978,9.238,17.516a72.50786,72.50786,0,0,1,1.92,17.218,70.44863,70.44863,0,0,1-2.1,18.056,37.932,37.932,0,0,1-8.878,16.555c-.54.54-.54.66-.54.78,0,.48.42.6.72.6.9,0,4.2-3.659,4.919-4.5C671.34968,70.14293,675.24868,59.34493,675.24868,45.96793Z"/><path id="Path_24" data-name="Path 24" class="cls-1" d="M707.06268,47.04793h15.9c.84,0,1.86,0,1.86-1.02,0-1.08-.96-1.08-1.86-1.08h-15.9v-15.9c0-.84,0-1.86-1.02-1.86-1.08,0-1.08.96-1.08,1.86v15.9h-15.896c-.84,0-1.86,0-1.86,1.02,0,1.08.96,1.08,1.86,1.08h15.9v15.9c0,.84,0,1.86,1.02,1.86,1.08,0,1.08-.96,1.08-1.86Z"/><path id="Path_27" data-name="Path 27" class="cls-1" d="M811.00466,75.60093a.467.467,0,0,0-.18-.36c-2.76-2.819-10.138-10.498-10.138-29.214s7.259-26.334,10.198-29.333c0-.06.12-.18.12-.36s-.18-.3-.42-.3c-.66,0-5.759,4.439-8.7,11.038a45.27309,45.27309,0,0,0-3.839,18.895,45.58009,45.58009,0,0,0,4.021,19.376c2.879,6.239,7.798,10.618,8.518,10.618C810.88466,75.96093,811.00466,75.84093,811.00466,75.60093Z"/><path id="Path_28" data-name="Path 28" class="cls-1" d="M842.32565,36.49093a3,3,0,0,0-2.639,2.939,1.857,1.857,0,0,0,1.98,1.92,3.135,3.135,0,0,0,3.059-3.179c0-2.519-2.879-3.659-5.4-3.659-3.659,0-5.7,3.6-6.239,4.739a6.213,6.213,0,0,0-6.178-4.743c-6.119,0-9.358,7.858-9.358,9.178a.612.612,0,0,0,.66.54c.48,0,.6-.36.72-.6,2.04-6.659,6.059-7.918,7.8-7.918,2.7,0,3.239,2.519,3.239,3.959a25.0419,25.0419,0,0,1-1.081,5.582l-2.04,8.218c-.9,3.6-2.639,6.9-5.819,6.9a6.063,6.063,0,0,1-3.059-.78,3.1,3.1,0,0,0,2.639-2.939,1.89,1.89,0,0,0-1.85367-1.92565q-.09326-.00177-.18633.00565a3.127,3.127,0,0,0-3,3.179c0,2.519,2.819,3.659,5.4,3.659,2.879,0,4.919-2.28,6.179-4.739a6.269,6.269,0,0,0,6.179,4.739c6.119,0,9.358-7.858,9.358-9.178a.554.554,0,0,0-.566-.54179l-.034.00179c-.54,0-.6.3-.78.78-1.62,5.279-5.1,7.738-7.8,7.738-2.1,0-3.239-1.56-3.239-4.019,0-1.32.24-2.28,1.2-6.239l2.1-8.158c.9-3.6,2.939-6.239,5.7-6.239A6.449,6.449,0,0,1,842.32565,36.49093Z"/><path id="Path_29" data-name="Path 29" class="cls-1" d="M859.2647,43.26593c0-.958,0-1-.833-1-1,1.125-3.082,2.666-7.372,2.666v1.208a12.01116,12.01116,0,0,0,5.331-1.083v21.7c0,1.5-.125,2-3.79,2h-1.291v1.208c1.125-.083,5.165-.083,6.539-.083s5.373,0,6.5.083v-1.209h-1.294c-3.665,0-3.79-.5-3.79-2Z"/><path id="Path_30" data-name="Path 30" class="cls-1" d="M921.96865,47.17293c1.02,0,2.1,0,2.1-1.2s-1.08-1.2-2.1-1.2h-32.454c-1.02,0-2.1,0-2.1,1.2s1.08,1.2,2.1,1.2Z"/><path id="Path_31" data-name="Path 31" class="cls-1" d="M970.85769,36.49093a3,3,0,0,0-2.639,2.939,1.857,1.857,0,0,0,1.98,1.92,3.135,3.135,0,0,0,3.059-3.179c0-2.519-2.879-3.659-5.4-3.659-3.659,0-5.7,3.6-6.239,4.739a6.213,6.213,0,0,0-6.178-4.743c-6.119,0-9.358,7.858-9.358,9.178a.612.612,0,0,0,.66.54c.48,0,.6-.36.72-.6,2.04-6.659,6.059-7.918,7.8-7.918,2.7,0,3.239,2.519,3.239,3.959a25.0419,25.0419,0,0,1-1.081,5.582l-2.04,8.218c-.9,3.6-2.639,6.9-5.819,6.9a6.063,6.063,0,0,1-3.059-.78,3.1,3.1,0,0,0,2.639-2.939,1.89,1.89,0,0,0-1.85367-1.92565q-.09324-.00177-.18633.00565a3.127,3.127,0,0,0-3,3.179c0,2.519,2.819,3.659,5.4,3.659,2.879,0,4.919-2.28,6.179-4.739a6.269,6.269,0,0,0,6.179,4.739c6.119,0,9.358-7.858,9.358-9.178a.554.554,0,0,0-.56594-.54179l-.03406.00179c-.54,0-.6.3-.78.78-1.62,5.279-5.1,7.738-7.8,7.738-2.1,0-3.239-1.56-3.239-4.019,0-1.32.24-2.28,1.2-6.239l2.1-8.158c.9-3.6,2.939-6.239,5.7-6.239A6.449,6.449,0,0,1,970.85769,36.49093Z"/><path id="Path_32" data-name="Path 32" class="cls-1" d="M994.46065,56.63593c0-3.457-.208-6.831-1.708-10a7.42611,7.42611,0,0,0-13.661.295c-1.166,2.624-1.582,5.207-1.582,9.705,0,4.04.292,7.08,1.791,10.038a7.406,7.406,0,0,0,6.664,4.164c3.624,0,5.706-2.166,6.914-4.581C994.37765,63.13293,994.46065,59.04693,994.46065,56.63593Zm-8.5,13.37c-1.333,0-4.04-.75-4.831-5.29a51.3281,51.3281,0,0,1-.458-8.58,36.46476,36.46476,0,0,1,.673-8.955,4.984,4.984,0,0,1,4.62-4.081c1.583,0,4,.958,4.79,4.54a42.47515,42.47515,0,0,1,.541,8.5,51.31341,51.31341,0,0,1-.458,8.5c-.793,4.574-3.416,5.365-4.873,5.365Z"/><path id="Path_33" data-name="Path 33" class="cls-1" d="M1013.4157,46.02693a45.5799,45.5799,0,0,0-4.02-19.375c-2.879-6.239-7.8-10.618-8.518-10.618-.18,0-.42.06-.42.36,0,.12.06.18.12.3,2.879,3,10.2,10.618,10.2,29.274,0,18.716-7.258,26.334-10.2,29.334-.06.12-.12.18-.12.3,0,.3.24.36.42.36.66,0,5.759-4.439,8.7-11.038A45.273,45.273,0,0,0,1013.4157,46.02693Z"/></g><g id="A_Number" data-name="A Number"><g id="Rectangle_3" data-name="Rectangle 3"><rect class="cls-2" x="0.90767" y="-0.00202" width="36" height="38"/><rect class="cls-2" x="1.40767" y="0.49798" width="35" height="37"/></g><g id="A" class="cls-3"><text class="cls-4" transform="translate(12.90765 25.99797)">A</text></g></g><g id="A_Number-2" data-name="A Number-2"><g id="Rectangle_3-2" data-name="Rectangle 3-2"><rect class="cls-2" x="360.90768" y="-0.00202" width="36" height="38"/><rect class="cls-2" x="361.40768" y="0.49798" width="35" height="37"/></g><g id="B" class="cls-3"><text class="cls-4" transform="translate(372.90767 25.99797)">B</text></g></g><g id="A_Number-3" data-name="A Number-3"><g id="Rectangle_3-3" data-name="Rectangle 3-3"><rect class="cls-2" x="733.90767" y="11.99798" width="55" height="59"/><rect class="cls-2" x="734.40767" y="12.49798" width="54" height="58"/></g><g id="C" class="cls-3"><text class="cls-5" transform="translate(751.90765 50.99797)">C</text></g></g></svg>