<?xml version="1.0" encoding="utf-8"?>
<!-- Generator: Adobe Illustrator 24.1.0, SVG Export Plug-In . SVG Version: 6.00 Build 0)  -->
<svg version="1.1" id="Layer_1" xmlns="http://www.w3.org/2000/svg" xmlns:xlink="http://www.w3.org/1999/xlink" x="0px" y="0px"
	 viewBox="0 0 50 50" style="enable-background:new 0 0 50 50;" xml:space="preserve">
<style type="text/css">
	.st0{fill:#50FFE6;}
</style>
<g id="Layer_5">
	<g id="uMkSkc.tif">
		<path class="st0" d="M48,28.6c-0.3,0.6-0.8,1.1-1.3,1.4C39.8,35,32.9,40,26,45c-0.1,0.1-0.2,0.2-0.4,0.2c0-0.1,0.1-0.2,0.2-0.3
			c6.5-8.3,13-16.7,19.5-25l0,0c0.1,0.1,0.1,0.3,0.2,0.4c0.4,1.2,0.8,2.4,1.2,3.6c0.4,1.3,0.9,2.6,1.3,3.8L48,28.6z"/>
		<path class="st0" d="M33.7,19.9c1.6-5,3.3-10.1,4.9-15.1C38.7,4.3,39,4,39.4,3.9h0.3c0.4,0.1,0.7,0.5,0.8,0.9
			c1.2,3.8,2.5,7.6,3.7,11.4c0.4,1.2,0.8,2.5,1.2,3.7l0,0L33.7,19.9L33.7,19.9z"/>
		<path class="st0" d="M5.5,19.9c0.5-1.6,1-3.1,1.5-4.7c1.1-3.5,2.2-7,3.4-10.4c0.1-0.4,0.4-0.8,0.8-0.9h0.3
			c0.4,0.1,0.7,0.5,0.8,0.9c1.6,4.9,3.1,9.7,4.7,14.6c0,0.1,0.1,0.3,0.1,0.5h-0.6c-3.5,0-6.9,0-10.4,0C5.9,19.9,5.7,19.9,5.5,19.9z"
			/>
		<path class="st0" d="M25.6,45.3l-0.3,0c0-0.2,0-0.3,0-0.5c-2.1-6.4-4.2-12.9-6.3-19.3c-0.6-1.7-1.1-3.4-1.7-5.1
			c0-0.1-0.1-0.3-0.1-0.4c0.1,0,0.3,0,0.4,0c5.3,0,10.6,0,15.9,0c0.1,0,0.2,0,0.3,0l0,0c0,0.2-0.1,0.3-0.1,0.5
			c-2.6,8.1-5.3,16.3-7.9,24.4C25.6,44.9,25.6,45.1,25.6,45.3z"/>
		<path class="st0" d="M25.2,45.2c-6.2-4.5-12.4-9-18.6-13.5c-0.9-0.7-1.9-1.4-2.8-2C3,29.2,2.7,28.2,3,27.4
			c0.8-2.4,1.5-4.7,2.3-7.1c0-0.1,0.1-0.3,0.2-0.4c2.9,3.7,5.7,7.3,8.6,11c3.6,4.7,7.3,9.3,10.9,14C25.1,45,25.1,45.1,25.2,45.2z"/>
	</g>
</g>
</svg>
