<svg xmlns="http://www.w3.org/2000/svg" viewBox="0 0 1359.29021 360.63144"><defs><style>.cls-1{fill:#fff;}.cls-2{fill:#ff500b;}</style></defs><g id="Layer_2" data-name="Layer 2"><g id="Layer_11" data-name="Layer 11"><path class="cls-1" d="M0,2.92629H54.7991V149.235h80.33659v46.28661H0Z"/><path class="cls-1" d="M140.98318,2.92629h54.7991V195.52163h-54.7991Z"/><path class="cls-1" d="M365.762,240.21191c-22.87757-11.43815-43.36032-27.39955-57.99113-41.764-57.19328-.79785-101.35208-44.1588-101.35208-99.22364C206.41877,43.62669,251.37542,0,309.36655,0,367.35831,0,412.315,43.62669,412.315,99.22428c0,36.70989-19.95128,68.1-49.2129,85.12494v.53147a418.21755,418.21755,0,0,0,51.60708,27.40019ZM309.36655,149.235c27.13381,0,48.14867-22.07908,48.14867-50.01074S336.50036,49.2129,309.36655,49.2129c-27.13318,0-48.14868,22.07972-48.14868,50.01138S282.23337,149.235,309.36655,149.235Z"/><path class="cls-1" d="M599.58284,104.27837c0,29.26162-5.58684,49.47864-16.2265,63.57734-14.36508,19.15343-40.70041,30.59221-72.88832,30.59221-31.65579,0-59.32172-10.90667-73.95253-31.39006-10.10819-14.0987-15.16292-34.58209-15.16292-62.77949V2.92629h54.7991v98.16006c0,18.62068,2.12845,29.52735,7.44891,36.97626,5.31984,7.44828,14.63081,12.76811,27.93166,12.76811,11.97026,0,20.74913-4.25561,26.33534-11.17241,6.11831-7.44828,9.0446-19.68491,9.0446-38.572V2.92629h52.67066Z"/><path class="cls-1" d="M711.56632,0c57.99177,0,102.94842,43.62669,102.94842,99.22428,0,55.597-44.95665,99.22364-102.94842,99.22364-57.99049,0-102.94714-43.62669-102.94714-99.22364C608.61918,43.62669,653.57583,0,711.56632,0Zm0,149.235c27.13445,0,48.14932-22.07908,48.14932-50.01074S738.70077,49.2129,711.56632,49.2129c-27.13317,0-48.148,22.07972-48.148,50.01138S684.43315,149.235,711.56632,149.235Z"/><path class="cls-1" d="M825.148,2.92629h67.30275c23.409,0,40.69976,2.92629,54.00062,9.57671,18.62068,9.04461,31.12432,25.27175,31.12432,50.27712,0,23.67542-11.43942,41.764-35.38121,51.87281l51.075,80.8687H931.28912l-42.82948-73.154h-8.51249v73.154H825.148Zm68.3657,81.93292q15.16419,0,21.5476-3.99051c5.0541-2.92566,7.71529-7.98039,7.71529-15.16292,0-8.24613-3.72541-13.30022-9.311-15.96077-4.52262-2.12781-10.90667-3.192-23.409-3.192H879.94715V84.85921Z"/><path class="cls-1" d="M990.07174,2.92629h54.7991V195.52163h-54.7991Z"/><path class="cls-1" d="M1219.37252,187.00914c-17.025,7.98038-37.50837,11.43878-55.86332,11.43878-64.64155,0-108.00251-43.09458-108.00251-98.95791,0-56.92754,44.95665-99.49,108.00251-99.49,19.15343,0,37.77411,3.99051,53.20341,10.90667V64.64219c-14.09934-8.77887-33.25277-15.9614-52.13919-15.9614-32.45428,0-54.26763,21.0155-54.26763,50.27711,0,27.93167,20.21765,50.80923,55.33185,50.80923,18.88642,0,37.50838-6.65042,53.73488-16.75925Z"/><path class="cls-1" d="M1230.53858,2.92629h125.559V49.2129h-70.75987V73.68679h59.8532v43.62606h-59.8532V149.235h73.95253v46.28661H1230.53858Z"/><path class="cls-2" d="M495.78971,350.83821c-12.61793,6.027-29.37875,9.79323-45.76342,9.79323-46.32882,0-77.21454-29.75631-77.21454-69.49276,0-40.49064,32.20391-71.00021,76.46129-71.00021a95.26334,95.26334,0,0,1,41.99715,9.60538v37.47669c-12.053-7.34468-26.74284-12.61745-40.49064-12.61745-24.2943,0-39.17245,16.00709-39.17245,36.53559,0,20.15093,14.50153,36.72343,38.41919,36.72343a35.87969,35.87969,0,0,0,8.28626-.94109V312.41949H439.66812V283.98183h56.12159Z"/><path class="cls-2" d="M507.0885,222.20991h88.89044v32.7698H545.88385v17.32576h42.37378v30.8862H545.88385v22.59947H598.2387v32.76839H507.0885Z"/><path class="cls-2" d="M664.52685,309.21769c-7.53253-10.16985-14.124-19.39767-20.90418-29.1909l-.37663.18878c.18879,11.48758.37663,23.16394.37663,34.65246v43.6915H606.33382V222.20991h36.34775l36.159,49.34231c7.53253,10.16986,14.124,19.39768,20.90418,29.1909l.37663-.18878c-.18878-11.48758-.37663-23.16394-.37663-34.65152V222.20991h37.28885V358.55953H700.68582Z"/></g></g></svg>